<svg width="154" height="88" viewBox="0 0 154 88" fill="none" xmlns="http://www.w3.org/2000/svg">
<path fill-rule="evenodd" clip-rule="evenodd" d="M32.6169 12.5146C32.0962 6.55712 36.6236 1.29703 42.5803 0.775879L45.8559 38.2239L79.9231 22.3359C82.4503 27.7552 80.1594 34.3066 74.7388 36.8338L46.8707 49.8295L47.8458 60.9691C54.6501 60.9605 60.447 66.1594 61.0511 73.0643C61.6885 80.3553 56.2956 86.7828 49.003 87.4212C41.7121 88.0583 35.2841 82.6663 34.6457 75.3736C34.209 70.3698 36.6134 65.7734 40.5196 63.1755L39.3265 49.5334L26.9143 55.3216C26.6184 60.004 23.8398 64.3847 19.2873 66.5076C12.6523 69.6013 4.76803 66.7299 1.6743 60.0971C-1.41825 53.4629 1.45123 45.5795 8.08459 42.4851C14.3668 39.5552 21.7678 41.9758 25.162 47.8736L35.2968 43.1483L32.6169 12.5146ZM10.2905 60.4355C13.5765 62.3327 17.7785 61.2067 19.6756 57.9208C21.5732 54.6341 20.4468 50.4328 17.1609 48.5356C13.875 46.6385 9.67335 47.7637 7.77578 51.0504C5.8787 54.3362 7.00457 58.5384 10.2905 60.4355ZM44.4035 80.1306C47.6894 82.0278 51.8914 80.9018 53.7886 77.6159C55.6862 74.3292 54.5597 70.1278 51.2738 68.2308C47.9879 66.3336 43.7863 67.4588 41.8887 70.7455C39.9916 74.0314 41.1175 78.2335 44.4035 80.1306ZM73.72 65.16C71.96 65.16 70.0934 65.6 68.12 66.48L66.88 62.8C67.5734 62.3467 68.64 61.9467 70.08 61.6C71.5467 61.2533 72.7334 61.08 73.64 61.08C75.1334 61.08 76.4934 61.3867 77.72 62C78.9734 62.6133 79.96 63.4533 80.68 64.52C81.4 65.56 81.76 66.7333 81.76 68.04V81H78.76L78.08 79.04C77.3334 79.76 76.48 80.3467 75.52 80.8C74.56 81.2533 73.6 81.48 72.64 81.48C70.4 81.48 68.6934 80.92 67.52 79.8C66.3734 78.68 65.8 77.1867 65.8 75.32C65.8 73.3733 66.4534 71.8667 67.76 70.8C69.0934 69.7333 70.84 69.2 73 69.2H77.24C77.1867 66.5067 76.0134 65.16 73.72 65.16ZM70.56 73.12C70 73.7067 69.72 74.44 69.72 75.32C69.72 76.0133 69.9734 76.6267 70.48 77.16C70.9867 77.6667 71.68 77.92 72.56 77.92C73.3867 77.92 74.2134 77.72 75.04 77.32C75.8667 76.92 76.6134 76.3733 77.28 75.68V72.2H72.92C71.9334 72.2 71.1467 72.5067 70.56 73.12ZM94.2419 66.2C92.9619 66.8667 91.7886 67.68 90.7219 68.64V81H86.2419V61.6H88.6419L90.1219 64.8C91.0819 64 92.1752 63.2667 93.4019 62.6C94.6552 61.9333 95.7486 61.6 96.6819 61.6L97.6019 65.2C96.6419 65.2 95.5219 65.5333 94.2419 66.2ZM114.144 62.36C112.678 61.5067 110.958 61.08 108.984 61.08C107.758 61.08 106.491 61.4267 105.184 62.12V52.76L100.704 53.2V81H103.064L103.984 79.76C104.758 80.2933 105.584 80.72 106.464 81.04C107.371 81.36 108.184 81.52 108.904 81.52C110.878 81.52 112.598 81.0933 114.064 80.24C115.558 79.3867 116.704 78.2 117.504 76.68C118.304 75.1333 118.704 73.36 118.704 71.36C118.704 69.28 118.304 67.4667 117.504 65.92C116.731 64.3733 115.611 63.1867 114.144 62.36ZM112.664 75.88C111.758 77.0533 110.504 77.64 108.904 77.64C107.518 77.64 106.278 77.24 105.184 76.44V66.2C105.771 65.7733 106.358 65.4533 106.944 65.24C107.558 65.0267 108.211 64.92 108.904 64.92C110.531 64.92 111.798 65.52 112.704 66.72C113.611 67.8933 114.064 69.44 114.064 71.36C114.064 73.2 113.598 74.7067 112.664 75.88ZM136.861 63.92C138.328 65.8133 139.061 68.2267 139.061 71.16V72.48H125.621C126.021 75.9467 128.088 77.68 131.821 77.68C132.861 77.68 133.781 77.5467 134.581 77.28C135.408 76.9867 136.395 76.5467 137.541 75.96L138.901 79.24C136.741 80.7333 134.355 81.48 131.741 81.48C128.221 81.48 125.528 80.5733 123.661 78.76C121.821 76.92 120.901 74.4267 120.901 71.28C120.901 69.2533 121.275 67.48 122.021 65.96C122.795 64.4133 123.888 63.2133 125.301 62.36C126.741 61.5067 128.435 61.08 130.381 61.08C133.235 61.08 135.395 62.0267 136.861 63.92ZM127.141 66.12C126.368 66.92 125.888 68.04 125.701 69.48H134.741C134.501 67.9867 134.008 66.8533 133.261 66.08C132.515 65.3067 131.515 64.92 130.261 64.92C128.981 64.92 127.941 65.32 127.141 66.12ZM150.453 66.2C149.173 66.8667 148 67.68 146.933 68.64V81H142.453V61.6H144.853L146.333 64.8C147.293 64 148.386 63.2667 149.613 62.6C150.866 61.9333 151.96 61.6 152.893 61.6L153.813 65.2C152.853 65.2 151.733 65.5333 150.453 66.2Z" fill="#99BAED"/>
</svg>
